# xmcd CD database file
#
# Track frame offsets:
#	150
#	23411
#	41486
#	52371
#	70876
#	83288
#	100723
#	120334
#	131879
#	156908
#	172810
#	186674
#	199005
#	218167
#	232580
#	244032
#	257910
#
# Disc length: 3733 seconds
#
# Revision: 0
# Processed by: cddbd v1.5.2PL0 Copyright (c) Steve Scherf et al.
# Submitted via: CDex 1.70beta2
#
DISCID=de0e9311
DTITLE=Thomas Winteler And His Swiss TriBe Feat. Gunhild Carling - Love Songs From Sweden And More Classic Numbers
DYEAR=1900
DGENRE=Jazz
TTITLE0=How Can You Be Mad At Me?
TTITLE1=Love Song From The Attic
TTITLE2=My Monday Date
TTITLE3=Chanzon
TTITLE4=I Always Knew
TTITLE5=Wrap Your Troubles In Dreams
TTITLE6=Sweet Sue, Just You
TTITLE7=Nobody But You
TTITLE8=Home
TTITLE9=Jack I'm Mellow
TTITLE10=Si Tu Vois Ma Mère
TTITLE11=Do You Remember?
TTITLE12=Baby
TTITLE13=You Can't Live In Harlem
TTITLE14=Sweet Louisiana - I'll Be Proud Of You
TTITLE15=Forty And Tight
TTITLE16=Oh Lady Be Good!
EXTD=
EXTT0=
EXTT1=
EXTT2=
EXTT3=
EXTT4=
EXTT5=
EXTT6=
EXTT7=
EXTT8=
EXTT9=
EXTT10=
EXTT11=
EXTT12=
EXTT13=
EXTT14=
EXTT15=
EXTT16=
PLAYORDER=
